<?xml version="1.0" encoding="UTF-8"?>
<svg version="1.1" xmlns="http://www.w3.org/2000/svg" width="1024" height="262">
<path d="M0 0 C3.22238434 2.70885696 5.4164659 5.41612174 6.875 9.375 C6.936875 10.674375 6.936875 10.674375 7 12 C7.0825 13.2375 7.165 14.475 7.25 15.75 C6.8252701 41.53110474 -4.96019045 66.81359943 -15 90 C-5.73959142 90.07858904 3.49634244 89.83207972 12.75 89.5 C14.14061842 89.45163349 15.53124341 89.40345533 16.921875 89.35546875 C20.28131893 89.23882139 23.64068507 89.12029547 27 89 C27.12584473 88.27973633 27.25168945 87.55947266 27.38134766 86.81738281 C27.99358013 84.02923649 28.8422151 81.57109668 29.8984375 78.921875 C30.2900708 77.93727295 30.6817041 76.9526709 31.08520508 75.93823242 C31.5108374 74.88611572 31.93646973 73.83399902 32.375 72.75 C32.81545654 71.65985596 33.25591309 70.56971191 33.7097168 69.4465332 C35.12841737 65.95954937 36.56086193 62.47859682 38 59 C38.48452637 57.82808105 38.96905273 56.65616211 39.46826172 55.44873047 C40.89757134 52.02000672 42.35024054 48.60228522 43.8125 45.1875 C44.25577637 44.12692383 44.69905273 43.06634766 45.15576172 41.97363281 C49.21573761 32.63492654 49.21573761 32.63492654 54 30 C56.75 30.125 56.75 30.125 59 31 C60.97925446 34.95850892 60.63368041 39.90636934 59.37051392 44.07977295 C58.4788992 46.15282748 57.49850366 48.14653356 56.45703125 50.1484375 C55.90881966 51.25549545 55.90881966 51.25549545 55.34953308 52.38491821 C54.18707573 54.72367262 53.00076986 57.04927207 51.8125 59.375 C51.03412392 60.9262398 50.25741711 62.47831838 49.48242188 64.03125 C48.35478699 66.29012388 47.22599741 68.54829946 46.08987427 70.80291748 C43.23918722 76.46767947 40.54835216 82.19220147 38 88 C39.98 88.33 41.96 88.66 44 89 C44 89.66 44 90.32 44 91 C42.76016357 91.18723633 41.52032715 91.37447266 40.24291992 91.56738281 C36.62175528 92.4849657 36.12904769 92.82248979 33.79418945 96.03417969 C33.20329772 97.31641947 32.64453306 98.61379877 32.11328125 99.921875 C31.64863716 100.96652924 31.64863716 100.96652924 31.17460632 102.0322876 C30.19234128 104.26040861 29.25284006 106.50391402 28.3125 108.75 C27.67123455 110.21338817 27.027375 111.67564248 26.38085938 113.13671875 C17.46581092 131.41352377 17.46581092 131.41352377 16 151 C18.02733096 154.15362593 19.16972402 154.7735611 22.75 155.75 C23.4925 155.8325 24.235 155.915 25 156 C25 156.99 25 157.98 25 159 C17.7829605 158.63303189 17.7829605 158.63303189 14.0625 155.625 C9.63232916 149.98660074 10.29579739 142.8557124 11 136 C13.52639248 121.31997546 19.16666001 107.03163816 24 93 C22.41916626 93.13631836 22.41916626 93.13631836 20.80639648 93.27539062 C16.87240405 93.61383275 12.9380864 93.94835734 9.00366211 94.28173828 C7.30532958 94.42618784 5.60708539 94.57168009 3.90893555 94.71826172 C1.45905028 94.92954546 -0.99113488 95.13699795 -3.44140625 95.34375 C-4.19273331 95.40937134 -4.94406036 95.47499268 -5.71815491 95.54260254 C-10.16375962 95.91334156 -14.53885994 96.06171029 -19 96 C-19.22042969 96.76441406 -19.44085938 97.52882813 -19.66796875 98.31640625 C-21.50241033 103.38936345 -23.89132172 108.12175827 -26.3125 112.9375 C-26.84593018 113.9994458 -27.37936035 115.0613916 -27.92895508 116.15551758 C-33.58954585 127.31558173 -39.711839 138.18396149 -46 149 C-46.32995972 149.56799316 -46.65991943 150.13598633 -46.99987793 150.72119141 C-51.28973902 158.10348499 -55.60736876 165.46882175 -59.95353699 172.81809998 C-62.19324509 176.61180684 -64.39334203 180.42613195 -66.57421875 184.25390625 C-67.63275005 186.08597359 -68.69133952 187.91800731 -69.75 189.75 C-70.4471814 191.00043091 -70.4471814 191.00043091 -71.15844727 192.27612305 C-74.36823111 197.77312167 -74.36823111 197.77312167 -77.828125 199.015625 C-78.54484375 199.01046875 -79.2615625 199.0053125 -80 199 C-79.46832603 193.02359071 -76.97713812 188.24377603 -74.375 182.9375 C-73.89281006 181.94161865 -73.41062012 180.9457373 -72.91381836 179.91967773 C-68.30983874 170.48481792 -63.48022561 161.16740042 -58.63378906 151.85571289 C-49.38345788 134.08161699 -40.47819624 116.15532932 -32 98 C-36.30198954 98.50632119 -40.60280537 99.02152116 -44.90283203 99.54418945 C-46.35893504 99.72000325 -47.8153093 99.89358819 -49.27197266 100.06469727 C-58.9962555 101.20892792 -68.45634853 102.76081818 -78 105 C-77.62670898 103.0703125 -77.62670898 103.0703125 -77 101 C-69.3782154 96.7705704 -59.22648524 96.08272457 -50.75 94.75 C-49.63761963 94.5746875 -48.52523926 94.399375 -47.37915039 94.21875 C-41.17889933 93.30026287 -35.26658332 92.81491104 -29 93 C-28.83636963 92.46850342 -28.67273926 91.93700684 -28.50415039 91.3894043 C-26.8721955 86.27631508 -24.91645262 81.43297878 -22.6875 76.5534668 C-18.00576705 66.28748715 -14.05800691 55.8826905 -10.5 45.1875 C-10.28681122 44.55260651 -10.07362244 43.91771301 -9.85397339 43.26358032 C-4.12965478 26.56716527 -4.12965478 26.56716527 -4.625 9.1875 C-7.08236543 5.278055 -10.70871003 3.43042999 -15 2 C-45.84839147 0.01502966 -74.84477574 15.47500295 -97.6640625 35.31640625 C-103.68823223 40.95793328 -107.38416758 46.85420562 -109 55 C-108.61432869 57.68149993 -108.61432869 57.68149993 -108 60 C-108.66 60 -109.32 60 -110 60 C-110.66 59.01 -111.32 58.02 -112 57 C-119.4220238 68.34870573 -126.2396318 79.71686192 -132 92 C-130.82244141 90.57300781 -130.82244141 90.57300781 -129.62109375 89.1171875 C-127.59406068 86.66078289 -125.83452981 84.54610717 -123 83 C-119.75 82.8125 -119.75 82.8125 -117 83 C-115.56976822 87.67209049 -114.59619955 92.13103697 -114 97 C-107.93161427 96.66899714 -104.05757178 95.24098056 -98.8828125 92.05859375 C-97 91 -97 91 -95 91 C-96.66779036 96.00337109 -101.51450995 97.61046953 -106 100 C-110.41507714 101.95282258 -113.32322427 102.38177465 -118 101 C-120.02350324 97.96474514 -120.32124018 96.80573798 -120.625 93.3125 C-120.73714844 92.10013672 -120.73714844 92.10013672 -120.8515625 90.86328125 C-120.90054688 90.24839844 -120.94953125 89.63351563 -121 89 C-129.69662403 92.59793959 -134.65581819 103.416291 -139.23828125 111.21484375 C-140.6938407 113.51598319 -141.8716276 115.32220226 -144 117 C-146.13745922 116.74853421 -147.45925779 116.54074221 -149 115 C-149.99085208 107.73375143 -146.7752325 101.59117719 -144 95 C-151.02660814 97.49378577 -156.96274968 100.62518092 -163 105 C-162.67 105.66 -162.34 106.32 -162 107 C-161.08875169 112.33731154 -163.02129298 115.58278814 -166.0078125 119.8125 C-169.79824084 123.97453896 -176.28174506 128.562136 -182.0234375 129.23828125 C-188.29531915 129.436231 -188.29531915 129.436231 -191.625 127.375 C-193 125 -193 125 -192.984375 122.17578125 C-191.67168232 117.94078462 -189.12879691 116.2326873 -185.625 113.8125 C-180.52767967 110.24292082 -180.52767967 110.24292082 -176 106 C-176.55429687 105.80664062 -177.10859375 105.61328125 -177.6796875 105.4140625 C-178.76636719 105.02347656 -178.76636719 105.02347656 -179.875 104.625 C-180.95394531 104.24214844 -180.95394531 104.24214844 -182.0546875 103.8515625 C-184 103 -184 103 -186 101 C-186.625 98.875 -186.625 98.875 -187 97 C-187.92619141 97.79664063 -187.92619141 97.79664063 -188.87109375 98.609375 C-196.4881197 104.96269345 -202.91293442 109.45176893 -213.0546875 109.43359375 C-215.52087855 108.88390056 -216.46423096 107.97525012 -218 106 C-218 105.34 -218 104.68 -218 104 C-222.08079986 107.82574987 -225.47467654 112.04158053 -228.94140625 116.42578125 C-238.71304819 128.64496917 -238.71304819 128.64496917 -242.9375 129.30078125 C-243.618125 129.30464844 -244.29875 129.30851563 -245 129.3125 C-245.680625 129.32925781 -246.36125 129.34601563 -247.0625 129.36328125 C-249.62276037 128.88323243 -250.47028552 128.08936612 -252 126 C-253.96034586 117.68486633 -250.03853897 109.55761252 -247 102 C-246.39478516 100.45699219 -246.39478516 100.45699219 -245.77734375 98.8828125 C-244.86785515 96.58138255 -243.94351926 94.28763887 -243 92 C-243.85271484 93.01320312 -243.85271484 93.01320312 -244.72265625 94.046875 C-254.55094209 105.40108836 -254.55094209 105.40108836 -262.25 106.4375 C-265 106 -265 106 -266.875 104.625 C-268 103 -268 103 -268 101 C-269.03966919 101.23771118 -269.03966919 101.23771118 -270.1003418 101.48022461 C-273.22964465 102.04116473 -276.21741889 102.21100442 -279.39453125 102.31640625 C-280.59658203 102.35830078 -281.79863281 102.40019531 -283.03710938 102.44335938 C-284.28298828 102.48267578 -285.52886719 102.52199219 -286.8125 102.5625 C-288.07771484 102.60568359 -289.34292969 102.64886719 -290.64648438 102.69335938 C-293.76421889 102.7992447 -296.88203035 102.90132405 -300 103 C-300.21615967 103.52956299 -300.43231934 104.05912598 -300.6550293 104.60473633 C-301.64950258 107.01445207 -302.66812553 109.41321825 -303.6875 111.8125 C-304.02716797 112.64587891 -304.36683594 113.47925781 -304.71679688 114.33789062 C-306.72004067 118.99964487 -308.06046041 121.9497883 -313 124 C-313.99 123.34 -314.98 122.68 -316 122 C-315.52923893 115.59137258 -314.40497136 110.61222644 -311.6875 104.8125 C-311.33848633 104.0505835 -310.98947266 103.28866699 -310.62988281 102.50366211 C-292.30861442 63.30861442 -292.30861442 63.30861442 -282 53 C-280.00041636 52.95919217 -277.99954746 52.95745644 -276 53 C-274.75 54.5625 -274.75 54.5625 -274 57 C-277.68248483 64.30743083 -282.61866286 70.95163926 -287.21875 77.70117188 C-287.83234375 78.61060547 -288.4459375 79.52003906 -289.078125 80.45703125 C-289.63918945 81.28178955 -290.20025391 82.10654785 -290.77832031 82.95629883 C-292.17103091 84.88927581 -292.17103091 84.88927581 -292 87 C-291.13117188 86.18015625 -290.26234375 85.3603125 -289.3671875 84.515625 C-288.20333453 83.42685931 -287.03926021 82.3383302 -285.875 81.25 C-285.30523437 80.71117188 -284.73546875 80.17234375 -284.1484375 79.6171875 C-280.622634 76.33177969 -277.08590258 73.5583463 -273 71 C-271.68 71.66 -270.36 72.32 -269 73 C-269.1328125 75.3046875 -269.1328125 75.3046875 -270 78 C-272.5546875 79.6328125 -272.5546875 79.6328125 -275.875 81.125 C-283.35332912 84.86003288 -288.53541388 89.67027901 -294 96 C-294 96.33 -294 96.66 -294 97 C-285.75 97.33 -277.5 97.66 -269 98 C-267.68 94.37 -266.36 90.74 -265 87 C-264.34 86.34 -263.68 85.68 -263 85 C-260.375 85.375 -260.375 85.375 -258 86 C-258.144375 86.825 -258.28875 87.65 -258.4375 88.5 C-259.05253152 92.32686278 -259.53560637 96.15216707 -260 100 C-248.29240639 97.65848128 -240.91428635 83.67171154 -234.64160156 74.49804688 C-231.00096064 68.95803528 -227.75971845 63.19084777 -224.53515625 57.40234375 C-222.72659919 54.21343053 -220.8559465 51.07556865 -218.890625 47.98046875 C-218.41786133 47.2330542 -217.94509766 46.48563965 -217.45800781 45.71557617 C-216 44 -216 44 -212.6875 43.375 C-210 44 -210 44 -209 45 C-208.44287928 50.79262695 -209.55638307 53.61016909 -212.875 58.3125 C-213.70915989 59.53845973 -214.5383711 60.76779741 -215.36328125 62 C-216.01417725 62.97066406 -216.01417725 62.97066406 -216.67822266 63.9609375 C-228.32002944 81.9203705 -239.04113955 103.09008992 -244 124 C-228.34666178 111.05564234 -228.34666178 111.05564234 -217.5 94.3125 C-215.38391796 89.6394855 -212.22684643 86.84191379 -208 84 C-204.6875 82.9375 -204.6875 82.9375 -202 83 C-200.515 83.99 -200.515 83.99 -199 85 C-198.48269086 88.91676918 -198.56102593 91.21350479 -200.5 94.6875 C-203.8365202 97.77378119 -208.28049318 101 -213 101 C-212.67 101.66 -212.34 102.32 -212 103 C-203.88987 104.10592682 -197.04786547 99.85962109 -190.578125 95.2890625 C-189.11040908 94.13883123 -187.65450796 92.9733612 -186.2109375 91.79296875 C-168.59240641 77.50514937 -168.59240641 77.50514937 -160 78 C-159.67 80.31 -159.34 82.62 -159 85 C-159.64066406 85.29132813 -160.28132812 85.58265625 -160.94140625 85.8828125 C-166.55716186 88.54422872 -171.80830125 91.30837388 -176 96 C-176.33 96.99 -176.66 97.98 -177 99 C-175.80375 99.350625 -174.6075 99.70125 -173.375 100.0625 C-172.70210937 100.25972656 -172.02921875 100.45695312 -171.3359375 100.66015625 C-165.00457102 101.58127478 -159.9251521 98.7414297 -154.4375 96 C-145.53206031 91.57436012 -145.53206031 91.57436012 -141 91 C-140.79375 90.23300781 -140.5875 89.46601562 -140.375 88.67578125 C-138.45011843 83.53000409 -135.73625082 78.94112957 -133 74.1875 C-132.1352002 72.6722876 -132.1352002 72.6722876 -131.25292969 71.12646484 C-116.71474426 45.71474426 -116.71474426 45.71474426 -115 44 C-112.66702567 43.95907063 -110.33294775 43.95758277 -108 44 C-107.731875 43.41605469 -107.46375 42.83210938 -107.1875 42.23046875 C-94.76542917 18.89822386 -62.56065316 5.52523723 -38.73828125 -2.03515625 C-26.76359488 -5.26546688 -11.03614737 -6.66848481 0 0 Z M-242 89 C-241 91 -241 91 -241 91 Z M-176.875 112.1875 C-177.92429687 112.96480469 -178.97359375 113.74210937 -180.0546875 114.54296875 C-182.80913059 116.84077339 -184.88199178 119.11971347 -187 122 C-180.61617531 121.83631219 -176.5096059 118.14883743 -172 114 C-169.59488054 111.34218507 -169.59488054 111.34218507 -169 108 C-172.31393497 108 -174.28008209 110.24289771 -176.875 112.1875 Z " fill="#FFFFFF" transform="translate(460,34)"/>
<path d="M0 0 C1.134375 0.020625 2.26875 0.04125 3.4375 0.0625 C4.21484375 2.09375 4.21484375 2.09375 4.4375 5.0625 C3.06235683 7.74744476 1.67906066 10.08248242 0 12.5625 C-0.93260084 13.99719491 -1.86488859 15.43209338 -2.796875 16.8671875 C-3.49973633 17.93211426 -3.49973633 17.93211426 -4.21679688 19.01855469 C-10.37933025 28.37862897 -15.71904651 37.96692664 -20.5625 48.0625 C-19.77746094 47.11117187 -18.99242187 46.15984375 -18.18359375 45.1796875 C-16.15656068 42.72328289 -14.39702981 40.60860717 -11.5625 39.0625 C-8.3125 38.875 -8.3125 38.875 -5.5625 39.0625 C-4.13226822 43.73459049 -3.15869955 48.19353697 -2.5625 53.0625 C4.1201013 52.59354552 9.49320831 51.34308608 14.11328125 46.1953125 C14.67402344 45.51210937 15.23476563 44.82890625 15.8125 44.125 C20.49994234 38.51681006 25.90315579 35.18982108 33.1875 34.125 C37.67874669 33.85114349 40.59535159 34.72853046 44.25 37.375 C45.85893133 39.6613761 45.65883294 41.33272708 45.4375 44.0625 C42.4375 45.0625 42.4375 45.0625 39.375 45.25 C34.1321334 45.95426566 29.5326413 48.82647925 25.4375 52.0625 C23.65240874 54.6463006 23.65240874 54.6463006 22.4375 57.0625 C24.08298828 56.28712891 24.08298828 56.28712891 25.76171875 55.49609375 C27.21582158 54.83002084 28.67026691 54.16469528 30.125 53.5 C30.84623047 53.15775391 31.56746094 52.81550781 32.31054688 52.46289062 C36.37231724 50.62674786 39.01599239 49.46657122 43.4375 51.0625 C43.7675 52.7125 44.0975 54.3625 44.4375 56.0625 C51.63979254 54.90083991 57.77649866 52.83485578 63.4375 48.0625 C64.70008366 44.68530804 64.70008366 44.68530804 65.4375 41.0625 C67.56755876 38.19724366 69.9515793 35.62153601 72.4375 33.0625 C74.375 33.375 74.375 33.375 76.4375 34.0625 C77.4375 37.0625 77.4375 37.0625 76.44140625 39.10546875 C75.96574219 39.81316406 75.49007812 40.52085938 75 41.25 C74.29037109 42.32314453 74.29037109 42.32314453 73.56640625 43.41796875 C73.19386719 43.96066406 72.82132813 44.50335938 72.4375 45.0625 C73.05625 45.165625 73.675 45.26875 74.3125 45.375 C76.4375 46.0625 76.4375 46.0625 78.4375 49.0625 C78.1953125 51.76171875 78.1953125 51.76171875 77.5625 54.75 C77.35882812 55.74386719 77.15515625 56.73773438 76.9453125 57.76171875 C76.69394531 58.90060547 76.69394531 58.90060547 76.4375 60.0625 C83.09961078 56.01389678 89.04311601 52.29682084 93.96875 46.15234375 C99.24789102 39.73338819 104.77354143 35.35494743 113.1875 34.125 C117.67874669 33.85114349 120.59535159 34.72853046 124.25 37.375 C125.85893133 39.6613761 125.65883294 41.33272708 125.4375 44.0625 C122.4375 45.0625 122.4375 45.0625 119.375 45.25 C114.1321334 45.95426566 109.5326413 48.82647925 105.4375 52.0625 C103.65240874 54.6463006 103.65240874 54.6463006 102.4375 57.0625 C104.08298828 56.28712891 104.08298828 56.28712891 105.76171875 55.49609375 C107.21582158 54.83002084 108.67026691 54.16469528 110.125 53.5 C110.84623047 53.15775391 111.56746094 52.81550781 112.31054688 52.46289062 C116.37231724 50.62674786 119.01599239 49.46657122 123.4375 51.0625 C123.7675 52.7125 124.0975 54.3625 124.4375 56.0625 C132.2472909 54.91023577 138.58409688 52.50440133 144.4375 47.0625 C149.10088569 40.71933852 152.67585106 33.41735779 155.4375 26.0625 C157.8125 25.9375 157.8125 25.9375 160.4375 26.0625 C161.0975 26.7225 161.7575 27.3825 162.4375 28.0625 C162.24813563 34.3938567 159.65430224 39.40308967 156.875 45 C156.23788086 46.31194336 156.23788086 46.31194336 155.58789062 47.65039062 C154.546287 49.79211493 153.4960578 51.92911853 152.4375 54.0625 C153.08976562 53.31484375 153.74203125 52.5671875 154.4140625 51.796875 C155.28804687 50.81203125 156.16203125 49.8271875 157.0625 48.8125 C157.92101562 47.83796875 158.77953125 46.8634375 159.6640625 45.859375 C163.34290602 42.14944266 166.44715995 39.25026793 171.75 38.75 C174.4375 39.0625 174.4375 39.0625 175.4375 40.0625 C175.97164489 46.04492275 174.99791442 49.82750737 172.3125 55.1796875 C171.29701902 57.01875158 171.29701902 57.01875158 171.4375 59.0625 C179.31706269 57.69214127 184.89136117 52.60863883 190.4375 47.0625 C191.4275 47.0625 192.4175 47.0625 193.4375 47.0625 C191.88625622 51.13924432 188.97819093 53.44830384 185.6875 56.125 C185.17445313 56.55876953 184.66140625 56.99253906 184.1328125 57.43945312 C177.89942254 62.58434911 173.37235324 64.60045615 165.4375 64.0625 C163.65932131 62.28432131 164.2048121 59.9302058 164.109375 57.55859375 C164.59823521 53.83976431 166.03178187 50.5232593 167.4375 47.0625 C158.51175589 56.65523537 158.51175589 56.65523537 149.83984375 66.4765625 C146.91492204 69.78441268 146.91492204 69.78441268 145.4375 71.0625 C142.09557308 70.81796876 140.83206443 70.45706443 138.4375 68.0625 C138.03314928 62.90702833 138.85900891 58.89662897 140.4375 54.0625 C139.51517578 54.69478516 139.51517578 54.69478516 138.57421875 55.33984375 C137.36185547 56.16162109 137.36185547 56.16162109 136.125 57 C135.32449219 57.54527344 134.52398438 58.09054688 133.69921875 58.65234375 C129.605885 61.20449139 126.1917457 61.4795391 121.4375 61.0625 C119.21484375 59.04296875 119.21484375 59.04296875 117.4375 57.0625 C116.61765625 57.48402344 115.7978125 57.90554687 114.953125 58.33984375 C113.87546875 58.88769531 112.7978125 59.43554688 111.6875 60 C110.62015625 60.54527344 109.5528125 61.09054688 108.453125 61.65234375 C103.23617899 64.0918742 99.14612859 64.33433946 93.4375 64.0625 C90.10848753 61.84315836 89.68726756 60.71566671 88.4375 57.0625 C87.73882813 57.55621094 87.04015625 58.04992187 86.3203125 58.55859375 C85.41023437 59.19925781 84.50015625 59.83992188 83.5625 60.5 C82.65757812 61.13808594 81.75265625 61.77617187 80.8203125 62.43359375 C77.08680923 64.98584107 74.96783663 65.25528028 70.4375 65.0625 C70.1075 64.7325 69.7775 64.4025 69.4375 64.0625 C69.5234375 62.13671875 69.5234375 62.13671875 69.8125 59.75 C69.90273438 58.97011719 69.99296875 58.19023437 70.0859375 57.38671875 C70.41237967 55.22857328 70.86889488 53.16826641 71.4375 51.0625 C67.28082856 50.32353619 65.34552117 50.49514868 61.69921875 52.7734375 C59.80619619 54.19256402 57.93390682 55.63987105 56.0859375 57.1171875 C51.32602658 60.61340526 47.34914408 61.70740663 41.4375 61.0625 C39.22265625 59.0390625 39.22265625 59.0390625 37.4375 57.0625 C36.61765625 57.48402344 35.7978125 57.90554687 34.953125 58.33984375 C33.87546875 58.88769531 32.7978125 59.43554688 31.6875 60 C30.62015625 60.54527344 29.5528125 61.09054688 28.453125 61.65234375 C23.23617899 64.0918742 19.14612859 64.33433946 13.4375 64.0625 C10.4375 62.0625 10.4375 62.0625 9.92578125 60.1171875 C9.76302083 58.09895833 9.60026042 56.08072917 9.4375 54.0625 C8.78523437 54.36285156 8.13296875 54.66320312 7.4609375 54.97265625 C-1.61029244 58.91957783 -1.61029244 58.91957783 -6.5625 57.0625 C-8.58600324 54.02724514 -8.88374018 52.86823798 -9.1875 49.375 C-9.29964844 48.16263672 -9.29964844 48.16263672 -9.4140625 46.92578125 C-9.46304688 46.31089844 -9.51203125 45.69601563 -9.5625 45.0625 C-18.25912403 48.66043959 -23.21831819 59.478791 -27.80078125 67.27734375 C-29.2563407 69.57848319 -30.4341276 71.38470226 -32.5625 73.0625 C-34.69995922 72.81103421 -36.02175779 72.60324221 -37.5625 71.0625 C-37.87296812 65.8880313 -37.14705205 61.91519066 -35.5625 57.0625 C-36.27535156 57.4234375 -36.98820313 57.784375 -37.72265625 58.15625 C-47.77538322 63.02701946 -47.77538322 63.02701946 -53.5625 62.0625 C-56.42164761 60.1564016 -56.82648058 58.30098545 -57.5625 55.0625 C-58.23796875 55.61679688 -58.9134375 56.17109375 -59.609375 56.7421875 C-60.50140625 57.46664062 -61.3934375 58.19109375 -62.3125 58.9375 C-63.19421875 59.65679687 -64.0759375 60.37609375 -64.984375 61.1171875 C-69.35380999 64.41412481 -72.02998913 65.43133406 -77.5625 65.0625 C-77.8925 64.7325 -78.2225 64.4025 -78.5625 64.0625 C-78.4765625 62.13671875 -78.4765625 62.13671875 -78.1875 59.75 C-78.05214844 58.58017578 -78.05214844 58.58017578 -77.9140625 57.38671875 C-77.58762033 55.22857328 -77.13110512 53.16826641 -76.5625 51.0625 C-80.71917144 50.32353619 -82.65447883 50.49514868 -86.30078125 52.7734375 C-88.19380381 54.19256402 -90.06609318 55.63987105 -91.9140625 57.1171875 C-96.67397342 60.61340526 -100.65085592 61.70740663 -106.5625 61.0625 C-108.77734375 59.0390625 -108.77734375 59.0390625 -110.5625 57.0625 C-111.79226563 57.69478516 -111.79226563 57.69478516 -113.046875 58.33984375 C-114.12453125 58.88769531 -115.2021875 59.43554688 -116.3125 60 C-117.37984375 60.54527344 -118.4471875 61.09054688 -119.546875 61.65234375 C-124.76382101 64.0918742 -128.85387141 64.33433946 -134.5625 64.0625 C-137.5625 62.0625 -137.5625 62.0625 -138.5 58.4375 C-138.90516609 53.44945527 -137.51889636 50.04285655 -134.5625 46.0625 C-128.20099937 39.35159877 -122.04500179 34.83017662 -112.67578125 34.05859375 C-108.98912545 34.06540827 -106.67106342 35.25974718 -103.75 37.375 C-102.14106867 39.6613761 -102.34116706 41.33272708 -102.5625 44.0625 C-105.5625 45.0625 -105.5625 45.0625 -108.625 45.25 C-113.8678666 45.95426566 -118.4673587 48.82647925 -122.5625 52.0625 C-124.34759126 54.6463006 -124.34759126 54.6463006 -125.5625 57.0625 C-123.91701172 56.28712891 -123.91701172 56.28712891 -122.23828125 55.49609375 C-120.78417842 54.83002084 -119.32973309 54.16469528 -117.875 53.5 C-116.7931543 52.98663086 -116.7931543 52.98663086 -115.68945312 52.46289062 C-111.62768276 50.62674786 -108.98400761 49.46657122 -104.5625 51.0625 C-104.0675 53.5375 -104.0675 53.5375 -103.5625 56.0625 C-96.36020746 54.90083991 -90.22350134 52.83485578 -84.5625 48.0625 C-83.29991634 44.68530804 -83.29991634 44.68530804 -82.5625 41.0625 C-80.43244124 38.19724366 -78.0484207 35.62153601 -75.5625 33.0625 C-73.625 33.375 -73.625 33.375 -71.5625 34.0625 C-70.5625 37.0625 -70.5625 37.0625 -71.55859375 39.10546875 C-72.27208984 40.16701172 -72.27208984 40.16701172 -73 41.25 C-73.70962891 42.32314453 -73.70962891 42.32314453 -74.43359375 43.41796875 C-74.80613281 43.96066406 -75.17867187 44.50335938 -75.5625 45.0625 C-74.94375 45.165625 -74.325 45.26875 -73.6875 45.375 C-71.5625 46.0625 -71.5625 46.0625 -69.5625 49.0625 C-69.8046875 51.76171875 -69.8046875 51.76171875 -70.4375 54.75 C-70.64117188 55.74386719 -70.84484375 56.73773438 -71.0546875 57.76171875 C-71.22226562 58.52097656 -71.38984375 59.28023437 -71.5625 60.0625 C-59.9664525 53.10151248 -59.9664525 53.10151248 -52.5625 42.0625 C-50.5825 42.0625 -48.6025 42.0625 -46.5625 42.0625 C-44.99093345 45.2056331 -46.44544424 47.427964 -47.5 50.6875 C-47.88027344 51.87601563 -48.26054688 53.06453125 -48.65234375 54.2890625 C-49.10287109 55.66191406 -49.10287109 55.66191406 -49.5625 57.0625 C-48.05868564 56.88376797 -46.55934069 56.66743637 -45.0625 56.4375 C-44.2271875 56.32148438 -43.391875 56.20546875 -42.53125 56.0859375 C-33.24441473 52.88442324 -29.46207166 46.27193714 -25.23199463 37.78213501 C-23.66481059 34.63814433 -22.03522274 31.52655429 -20.4140625 28.41015625 C-20.09206879 27.78705063 -19.77007507 27.16394501 -19.43832397 26.5219574 C-16.40287825 20.67662751 -13.10485774 15.00537416 -9.6875 9.375 C-9.18186523 8.53888184 -8.67623047 7.70276367 -8.15527344 6.84130859 C-4.02443649 0.07060415 -4.02443649 0.07060415 0 0 Z " fill="#FFFFFF" transform="translate(644.5625,77.9375)"/>
<path d="M0 0 C3.17879758 2.30977378 4.32518245 4.37160519 4.97265625 8.234375 C5.93491385 22.93285991 -3.69666821 38.76442297 -12.93359375 49.62109375 C-13.73796875 50.46671875 -14.54234375 51.31234375 -15.37109375 52.18359375 C-15.70109375 51.19359375 -16.03109375 50.20359375 -16.37109375 49.18359375 C-15.21875 47.265625 -15.21875 47.265625 -13.43359375 44.99609375 C-10.15421402 40.51822584 -7.53210301 35.94597579 -5.05859375 30.99609375 C-4.72158447 30.33134033 -4.3845752 29.66658691 -4.03735352 28.98168945 C-0.65336484 22.10179528 1.1323681 15.86138695 0.62890625 8.18359375 C-0.27846658 5.68256103 -0.87974369 4.49244236 -3.1484375 3.06640625 C-12.66553634 -0.27232282 -21.13157549 2.55021647 -30.07421875 6.5234375 C-55.98940683 19.57314714 -77.70454751 42.32326068 -87.43359375 69.99609375 C-88.10981769 72.04883049 -88.76126143 74.11016387 -89.37109375 76.18359375 C-89.56960938 76.84230469 -89.768125 77.50101562 -89.97265625 78.1796875 C-91.40517839 85.38443121 -91.4563563 93.27656117 -87.55078125 99.66015625 C-85.07845059 102.85290114 -83.05876449 103.93229929 -79.0625 104.52734375 C-60.65127186 105.59621041 -43.05076255 91.50613706 -29.27685547 80.74926758 C-16.41855344 70.71568989 -16.41855344 70.71568989 -9.43359375 69.49609375 C-6.37109375 70.18359375 -6.37109375 70.18359375 -4.49609375 72.30859375 C-3.37109375 75.18359375 -3.37109375 75.18359375 -2.37109375 81.18359375 C1.58890625 79.20359375 5.54890625 77.22359375 9.62890625 75.18359375 C9.62890625 76.17359375 9.62890625 77.16359375 9.62890625 78.18359375 C7.07421875 80.0078125 7.07421875 80.0078125 3.75390625 81.87109375 C2.11808594 82.80501953 2.11808594 82.80501953 0.44921875 83.7578125 C-2.37109375 85.18359375 -2.37109375 85.18359375 -4.37109375 85.18359375 C-4.53931641 86.04404297 -4.53931641 86.04404297 -4.7109375 86.921875 C-11.4278526 115.85290149 -33.97777142 149.32706133 -58.8828125 165.7109375 C-67.25485516 170.66581989 -74.61027636 172.26379087 -84.37109375 171.18359375 C-88.58464514 169.730645 -91.31245539 168.19252109 -93.37109375 164.18359375 C-95.22753237 156.49263375 -93.7976327 150.27726581 -89.7734375 143.48828125 C-75.49446623 122.90545203 -53.20009498 108.82565176 -31.56640625 96.97265625 C-30.60629639 96.44285156 -29.64618652 95.91304688 -28.65698242 95.3671875 C-26.79696776 94.34941655 -24.92756794 93.34856223 -23.0480957 92.3671875 C-17.89785376 89.6290034 -17.89785376 89.6290034 -14.78125 84.83203125 C-14.64589844 83.95804687 -14.51054688 83.0840625 -14.37109375 82.18359375 C-15.20769531 82.86164063 -16.04429687 83.5396875 -16.90625 84.23828125 C-35.57334226 99.22786406 -57.90224814 116.37716174 -82.9453125 115.55859375 C-89.74136435 114.81467017 -93.49273258 112.60753058 -97.74609375 107.30859375 C-103.26743517 99.6897595 -103.06802038 91.18109521 -102.37109375 82.18359375 C-97.03510219 53.30844955 -71.22418233 27.80199883 -48.2109375 11.703125 C-35.04079475 2.88846253 -15.57034884 -9.0905673 0 0 Z M-20.37109375 94.18359375 C-22.89666784 95.45414702 -25.26949891 96.78513226 -27.68359375 98.24609375 C-28.42689941 98.69073975 -29.17020508 99.13538574 -29.93603516 99.59350586 C-43.65906877 107.90059475 -57.31655344 116.55550738 -69.37109375 127.18359375 C-70.655 128.25287109 -70.655 128.25287109 -71.96484375 129.34375 C-79.97028246 136.1797195 -89.3497767 145.51698905 -90.64453125 156.50390625 C-90.95572531 160.98149288 -90.95572531 160.98149288 -89.1015625 164.89453125 C-85.86197217 167.3077701 -82.30860314 167.27488068 -78.37109375 167.18359375 C-64.10541728 164.88411851 -54.73906465 154.64003237 -46.609375 143.44140625 C-35.77283508 128.12084606 -26.92699465 111.85928796 -18.37109375 95.18359375 C-19.36109375 94.68859375 -19.36109375 94.68859375 -20.37109375 94.18359375 Z " fill="#FFFFFF" transform="translate(974.37109375,49.81640625)"/>
<path d="M0 0 C7.80026971 7.80026971 8.28240626 18.07074434 8.32128906 28.47729492 C8.11720603 42.30667801 4.46658762 55.98037226 0 69 C2.97 69.495 2.97 69.495 6 70 C2.91190305 71.76462683 1.76687864 72 -2 72 C-2.11448486 72.86286621 -2.22896973 73.72573242 -2.34692383 74.61474609 C-3.01566988 78.08122565 -4.05632692 80.92469803 -5.44921875 84.1640625 C-5.96049316 85.35475342 -6.47176758 86.54544434 -6.99853516 87.7722168 C-7.56061797 89.05687442 -8.12363042 90.34112563 -8.6875 91.625 C-8.97389343 92.28150543 -9.26028687 92.93801086 -9.55535889 93.6144104 C-17.54477603 111.89316152 -26.32856896 129.80376825 -36.125 147.1875 C-36.56215332 147.97793701 -36.99930664 148.76837402 -37.44970703 149.58276367 C-37.86075684 150.29150635 -38.27180664 151.00024902 -38.6953125 151.73046875 C-39.2214917 152.64928833 -39.2214917 152.64928833 -39.75830078 153.58666992 C-41.35224024 155.40092779 -42.65705057 155.62676772 -45 156 C-42.72463149 148.68235146 -39.81293735 141.70394031 -36.78857422 134.67163086 C-28.13277611 114.49214972 -20.75140372 93.89381783 -14 73 C-14.99 73.495 -14.99 73.495 -16 74 C-17.64869604 74.22770653 -19.30450482 74.40483977 -20.96191406 74.55664062 C-22.51558685 74.70184143 -22.51558685 74.70184143 -24.10064697 74.84997559 C-25.7910611 75.00158142 -25.7910611 75.00158142 -27.515625 75.15625 C-29.25945465 75.31704041 -29.25945465 75.31704041 -31.03851318 75.4810791 C-33.50987762 75.70818751 -35.9814216 75.93334911 -38.453125 76.15673828 C-42.19310247 76.4948561 -45.93252079 76.83865861 -49.671875 77.18359375 C-61.10701876 78.2326684 -72.53840494 79.28130382 -84 80 C-88.67468011 90.38869705 -91.86703701 101.06464496 -95 112 C-95.66 112 -96.32 112 -97 112 C-96.41938323 101.35535927 -93.01517618 90.83212944 -89 81 C-90.55110474 80.97812622 -90.55110474 80.97812622 -92.13354492 80.95581055 C-95.98236082 80.89769118 -99.83059999 80.82045977 -103.67895508 80.73754883 C-105.34227108 80.70436345 -107.00569796 80.67631166 -108.66918945 80.65356445 C-111.06509499 80.61990001 -113.45999035 80.5675806 -115.85546875 80.51171875 C-116.5952446 80.50532883 -117.33502045 80.4989389 -118.09721375 80.49235535 C-122.55525654 80.36635638 -125.39754823 79.65622839 -129 77 C-128.67 75.35 -128.34 73.7 -128 72 C-127.29875 72.144375 -126.5975 72.28875 -125.875 72.4375 C-120.41742283 73.50528684 -115.20148814 74.15532886 -109.6328125 74.31640625 C-108.61343094 74.3475779 -108.61343094 74.3475779 -107.57345581 74.37937927 C-105.42406334 74.4442363 -103.2745593 74.50345941 -101.125 74.5625 C-99.6588431 74.60574612 -98.19269706 74.64936225 -96.7265625 74.69335938 C-93.15115725 74.79985104 -89.57562963 74.90129409 -86 75 C-85.84217041 74.46777832 -85.68434082 73.93555664 -85.52172852 73.38720703 C-83.58513316 67.19734152 -80.97551893 61.59553065 -77.9375 55.875 C-77.21276489 54.50347778 -77.21276489 54.50347778 -76.47338867 53.10424805 C-64.07000851 30.00292721 -47.47228957 6.46113613 -22 -3 C-14.18931673 -5.34320498 -6.72852993 -4.67938672 0 0 Z M-44 15 C-44.87269531 15.77988281 -45.74539062 16.55976562 -46.64453125 17.36328125 C-57.98013684 28.05021127 -66.08594499 40.92839006 -73.5625 54.5 C-74.06322021 55.4072583 -74.56394043 56.3145166 -75.07983398 57.24926758 C-78.00704715 62.71075581 -80.12635508 68.10161672 -82 74 C-66.11485201 74.21939064 -50.40466367 73.63402949 -34.5625 72.5 C-32.45122099 72.3547531 -30.33989279 72.21021926 -28.22851562 72.06640625 C-23.15174294 71.71909912 -18.07572061 71.36234497 -13 71 C-10.58884211 63.45084094 -8.37210044 55.95917983 -6.8125 48.1875 C-6.5659668 47.01670898 -6.5659668 47.01670898 -6.31445312 45.82226562 C-3.85796319 33.89784686 -0.9525416 19.21398783 -7 8 C-10.32495774 4.10736655 -12.27183188 2.19201868 -17.375 1.625 C-27.85688494 1.81488922 -36.56592672 8.21947162 -44 15 Z " fill="#FFFFFF" transform="translate(148,52)"/>
<path d="M0 0 C1.1446875 0.3403125 1.1446875 0.3403125 2.3125 0.6875 C1.75545272 3.91837421 0.98062465 5.71111137 -1.6875 7.6875 C-3.0075 7.6875 -4.3275 7.6875 -5.6875 7.6875 C-5.91482116 4.88387237 -6.02831872 3.22563483 -4.5 0.8125 C-2.6875 -0.3125 -2.6875 -0.3125 0 0 Z " fill="#FFFFFF" transform="translate(601.6875,106.3125)"/>
<path d="M0 0 C-0.1875 2.375 -0.1875 2.375 -1 5 C-3.5625 6.3125 -3.5625 6.3125 -6 7 C-6.66 6.01 -7.32 5.02 -8 4 C-5.97675095 -0.48005146 -4.79569304 -1.43870791 0 0 Z " fill="#FFFFFF" transform="translate(206,108)"/>
</svg>
